<?xml version="1.0" encoding="UTF-8" standalone="no"?>
<svg width="256px" height="256px" viewBox="0 0 256 256" version="1.1" xmlns="http://www.w3.org/2000/svg" xmlns:xlink="http://www.w3.org/1999/xlink">
<path style="fill:#020101; stroke:none;" d="M0 0L0 115C19.3369 102.382 42.656 92.8862 64 84C59.4056 80.8951 53.9066 78.9735 50.858 73.9853C40.0153 56.244 54.4485 37.712 70 30.3202C100.522 15.8128 139.733 15.3222 172 23.6296C184.188 26.7676 201.715 33.0426 207.936 45C210.746 50.4023 205.343 52.7426 203.6 57.1698C201.357 62.8661 199.072 73.8643 199 80L191 82C206.359 92.5526 239.427 81.0081 251.397 98.1049C256.74 105.737 252.693 124.187 252.09 133C251.252 145.226 254.87 162.26 250.181 173.715C246.979 181.538 238.071 187.543 231.985 193.051C218.342 205.4 205.062 219.928 189.83 230.344C177.574 238.725 159.158 239.289 145 237.271C113.152 232.731 81.2101 222.676 50 214.873C36.2658 211.44 14.565 210.185 5.43364 197.985C2.12056 193.558 3.32155 188.145 2.71451 183L1 143C-2.80756 152.074 0 167.153 0 177L0 256L256 256L256 0L0 0z"/>
<path style="fill:#933329; stroke:none;" d="M49 50C73.3811 22.6201 106.216 20 141 20C135.293 17.6051 127.154 19 121 19C102.345 19 81.325 23.0162 65 32.4645C57.9526 36.5433 50.6766 41.5753 49 50z"/>
<path style="fill:#651d15; stroke:none;" d="M141 19L155 21.3241C172.789 24.2946 206.628 31.6963 205 55C214.401 47.1211 204.541 38.5836 197 33.6991C181.097 23.399 159.743 19.002 141 19z"/>
<path style="fill:#ac4339; stroke:none;" d="M110 20C115.457 28.0188 130.383 23.6815 136.342 33.0895C138.583 36.6279 135.167 39.8438 133.764 43C130.598 50.1219 126.153 58.3391 125 66L85 66C87.6947 77.35 79.7526 83.8106 69 83C74.0712 86.7688 81.8737 85.6067 88 86.0247L130 87L131 70C135.839 69.9968 143.409 70.593 147.671 67.973C156.12 62.7784 158.889 42.9755 158.996 34L157.972 23.7384C155.594 20.7418 149.397 21.1978 146 20.8341L110 20z"/>
<path style="fill:#933329; stroke:none;" d="M143 20L148 21L143 20z"/>
<path style="fill:#cc685d; stroke:none;" d="M71 64C67.8751 69.8048 60.7692 73.4775 56 78C59.6232 80.4155 67.8611 80.5555 67 84C77.7207 82.47 89.2047 80.2305 85 66L125 66L133.764 43.9645L137.549 34.9259C136.421 26.756 122.208 25.0235 116.015 23.6752C97.6785 19.6831 76.7716 25.7633 61.0008 36.7245C43.9158 48.5991 52.5706 62.391 71 64z"/>
<path style="fill:#933329; stroke:none;" d="M152 21L157 22L152 21M157 22C162.817 32.4591 157.282 59.9884 147.671 67.3966C143.685 70.4685 135.813 69.9867 131 70L130 87L105 87C116.874 91.9824 138.456 88.0925 151 86.4244C155.34 85.8473 161.816 86.8632 165.486 84.0116C170.848 79.8449 165.268 71.0135 171.148 66.858C179.96 60.6311 197.048 64.2934 204.062 54.6096C208.639 48.2898 202.339 42.5869 198.454 38.1049C189.183 27.4075 170.471 23.7396 157 22z"/>
<path style="fill:#ff0101; stroke:none;" d="M88 23L89 24L88 23z"/>
<path style="fill:#e5968e; stroke:none;" d="M101 25L81 29.7423C72.1563 32.6714 58.9759 37.7152 55.0941 47.0039C50.8668 57.1194 72.5908 63.9518 79.9954 62.5926C90.7863 60.6118 100.78 34.3549 101 25z"/>
<path style="fill:#ff0101; stroke:none;" d="M71 29L72 30L71 29z"/>
<path style="fill:#ac4339; stroke:none;" d="M48 50L49 70C51.398 64.2854 50 56.1692 50 50L48 50z"/>
<path style="fill:#e5968e; stroke:none;" d="M50 53C50 58.8396 48.3044 67.8882 51.7423 72.9406C57.0342 80.7178 68.9844 70.1261 71 64C62.3892 62.7283 56.3026 58.7529 50 53z"/>
<path style="fill:#ff0101; stroke:none;" d="M48 56L49 57L48 56z"/>
<path style="fill:#651d15; stroke:none;" d="M202 56C192.97 61.1341 177.977 60.7582 170.318 66.858C164.879 71.1899 171.065 80.8643 163.867 84.4861L146 86.9498L94 87C101.467 93.1124 115.884 91 125 91L125 101L113 101C113.123 111.392 124.515 110.329 133 109.961C148.637 109.282 167.576 105.84 169 87L192 84C192 80.7577 196.142 80.5265 199 80C199.266 71.6337 205.638 64.6707 202 56M49 70C51.192 78.3919 58.7785 82.7677 67 84L49 70z"/>
<path style="fill:#ac4339; stroke:none;" d="M60 80L63 81L60 80M63 81L68 83L63 81z"/>
<path style="fill:#897413; stroke:none;" d="M192 83L190 84C191.482 84.7912 192.796 84.8698 192 83z"/>
<path style="fill:#a69f77; stroke:none;" d="M0 140C3.05737 132.714 -1.83957 122.897 2.74228 116.093C6.59661 110.37 15.9294 107.567 22 104.861L65 85C59.8435 83.5861 53.6733 88.5365 49 90.5756L14 106.742C9.60632 108.869 3.53091 110.499 1.02778 115.093C-2.30112 121.203 0 133.149 0 140z"/>
<path style="fill:#fbf1a9; stroke:none;" d="M13 192C15.8081 185.745 15.9435 176.822 16 170L33 173C23.7787 167.368 12.4118 169.466 5 160L14 165C14.0074 153.785 21.3584 139.298 16 129L31.0039 128.447L72 135L73 98C73 94.7147 74.3475 87.4866 71.3966 85.1798C68.3253 82.7789 63.9438 85.2123 61 86.5293L35 98.5756C26.0535 102.479 8.50198 107.041 2.74228 115.185C-1.0315 120.521 1.97022 128.984 1.99923 135C2.10018 155.933 2.26767 173.612 13 192z"/>
<path style="fill:#b69e25; stroke:none;" d="M159 115L159 108C163.803 107.277 168.372 105.926 170 101L150 107.96C139.494 110.478 128.71 110 118 110C133.531 125.697 166.574 133.46 188 133.985C196.909 134.204 201.706 131.111 209 126.335C211.806 124.497 214.584 121.962 217 125L240.995 108.112C243.729 105.954 247.352 103.079 246.623 99.108C245.528 93.1417 233.65 92.7397 229 91.9159C210.66 88.667 192.558 81.299 174.054 87.0548C163.616 90.3015 171.633 97.5446 171.677 104C171.724 110.746 164.66 114.117 159 115z"/>
<path style="fill:#715f10; stroke:none;" d="M193 84C208.263 93.2026 242.924 83.0051 252 102C254.068 95.4128 244.929 92.6685 240 91.3773C225.243 87.5115 208.274 84.3153 193 84z"/>
<path style="fill:#f0df77; stroke:none;" d="M73 85L72 135L31.0039 128.291L16 129C20.4727 140.673 11.1094 151.43 14.3179 162.891C15.6069 167.496 22.0643 167.939 26 168.79L60 176L60.3071 163.093C58.1097 156.363 42.2681 147.637 36 145L37 139C50.097 142.854 59.5968 156.408 73 159L75 141L117 148L117 145C124.691 146.449 140.322 151.992 147.683 148.397C152.577 146.006 152.6 129.355 148.682 126.224C135.245 115.484 114.592 121.211 99 115.612C88.3677 111.794 85.2966 103.331 93 95C88.3208 87.162 81.2296 87.3181 73 85z"/>
<path style="fill:#933329; stroke:none;" d="M77 85C80.859 87.3268 85.5437 87.8082 90 88C91.2915 96.2951 105.54 104.265 113 107L113 101L125 101L125 91L77 85z"/>
<path style="fill:#715f10; stroke:none;" d="M179.667 85.3333L180.333 85.6667L179.667 85.3333z"/>
<path style="fill:#cc685d; stroke:none;" d="M78.6667 86.3333L79.3333 86.6667L78.6667 86.3333z"/>
<path style="fill:#715f10; stroke:none;" d="M174 86L177 87L174 86z"/>
<path style="fill:#e5968e; stroke:none;" d="M82 87L85 88L82 87z"/>
<path style="fill:#897413; stroke:none;" d="M169 87L169 91L172 88L169 87z"/>
<path style="fill:#b69e25; stroke:none;" d="M88.6667 88.3333L89.3333 88.6667L88.6667 88.3333z"/>
<path style="fill:#897413; stroke:none;" d="M215 89C223.254 92.5604 235.037 93.7931 244 95C237.349 89.7654 223.271 89.0055 215 89M164 101C168.892 101.373 170.627 103.108 171 108C174.095 100.556 164.383 89.4874 164 101z"/>
<path style="fill:#ffff01; stroke:none;" d="M38 95L39 96L38 95z"/>
<path style="fill:#c7b34e; stroke:none;" d="M119 112C112.516 105.378 94.4764 109.808 96 96C88.5476 94.9434 87.1566 102.096 93.0193 106.03C100.114 110.79 110.671 111.977 119 112z"/>
<path style="fill:#897413; stroke:none;" d="M228 95L227 99C231.063 100.701 235.057 99.6636 239 98C235.735 94.9404 232.325 95.0124 228 95M244 95C248.486 101.254 244.32 104.814 239 108.87C231.774 114.378 215.758 121.165 215 131C225.884 126.399 239.414 116.039 247.941 107.816C253.655 102.306 251.444 96.5073 244 95z"/>
<path style="fill:#cc685d; stroke:none;" d="M96 96C97.2133 102.409 98.2928 105.382 105 107C103.481 101.499 101.13 98.6283 96 96z"/>
<path style="fill:#715f10; stroke:none;" d="M163 96L163 103C164.059 100.466 164.059 98.5343 163 96M226 96L226 99L229 99L229 96L226 96z"/>
<path style="fill:#ac4339; stroke:none;" d="M95 98L96 103C96.9157 100.7 96.8793 99.6232 95 98z"/>
<path style="fill:#715f10; stroke:none;" d="M95.3333 99.6667L95.6667 100.333L95.3333 99.6667z"/>
<path style="fill:#e5d055; stroke:none;" d="M88 102C88.2309 121.55 121.047 120 135 120C121.661 108.947 102.655 111.563 88 102z"/>
<path style="fill:#ac4339; stroke:none;" d="M104 102C104.921 107.773 108.889 108.033 114 109L104 102z"/>
<path style="fill:#715f10; stroke:none;" d="M170 102C167.398 105.368 166.14 107.694 166 112C170.656 110.529 171.824 106.389 170 102z"/>
<path style="fill:#651d15; stroke:none;" d="M252 102L250 175L251.285 161L253 120C253 114.381 254.189 107.216 252 102z"/>
<path style="fill:#715f10; stroke:none;" d="M251 104L224 124.71C220.005 127.571 213.503 130.828 211.028 135.184C206.128 143.807 211.228 159.752 210.08 169.41L203 182L221 169L221 203C229.727 196.925 244.909 186.082 248.991 176C253.811 164.094 250.957 143.836 250.999 131C251.026 122.717 254.27 111.792 251 104z"/>
<path style="fill:#897413; stroke:none;" d="M165 106L159 108L159 115L167 113L165 106z"/>
<path style="fill:#ffff01; stroke:none;" d="M12 107L13 108L12 107z"/>
<path style="fill:#715f10; stroke:none;" d="M151.667 107.333L152.333 107.667L151.667 107.333z"/>
<path style="fill:#ffff01; stroke:none;" d="M10 108L11 109L10 108z"/>
<path style="fill:#b69e25; stroke:none;" d="M109 108L112 109L109 108z"/>
<path style="fill:#715f10; stroke:none;" d="M145 108L148 109L145 108M117 109L124 110L117 109M137 109L141 110L137 109z"/>
<path style="fill:#ffff01; stroke:none;" d="M4 111L5 112L4 111z"/>
<path style="fill:#e5d055; stroke:none;" d="M18 114L22 115L18 114z"/>
<path style="fill:#c7b34e; stroke:none;" d="M15 115L16 116L15 115z"/>
<path style="fill:#897413; stroke:none;" d="M16 115L15 118C19.2588 119.787 23.7634 119.305 27 116L16 115z"/>
<path style="fill:#c7b34e; stroke:none;" d="M25 115L26 116L25 115z"/>
<path style="fill:#715f10; stroke:none;" d="M14 116L14 118L17 118L17 116L14 116z"/>
<path style="fill:#f0df77; stroke:none;" d="M18 119L22 120L18 119z"/>
<path style="fill:#c7b34e; stroke:none;" d="M164 131C163.987 134.769 164.352 137.827 161 140L170 142L170 145L151 149L151 154C170.479 154 186.968 146.883 203 135.421C208.196 131.707 215.152 128.444 217 122L196 133.49C186.178 136.318 174.013 131.43 164 131M149.667 126.333L150.333 126.667L149.667 126.333M1 127L1 143C2.81229 138.681 2.81229 131.319 1 127z"/>
<path style="fill:#e5d055; stroke:none;" d="M151 127C151 132.411 152.663 143.216 148.4 147.397C142.947 152.746 123.816 145.866 117 145L117 149L152 153L151 149C154.987 148.997 158.668 149.598 161 146L156 144L164 140L164 130L151 127z"/>
<path style="fill:#b69e25; stroke:none;" d="M214 127L191 142.816L177.299 147.509L168.995 153.177C142.985 159.262 113.816 145.037 88 143L107 152.255L153 173L145 194L141 194C149.866 197.98 163.622 196.631 173 195.08C176.392 194.52 181.761 194.407 183.397 190.772C187.888 180.791 184 160.97 184 150C191.585 149.223 217.442 136.107 214 127z"/>
<path style="fill:#897413; stroke:none;" d="M184 150L184 179L182.972 190.772C179.59 196.313 166.675 195.991 161 196C138.552 196.036 118.073 186.742 96 185C101.751 189.28 111.076 189.897 118 191.424C138.032 195.842 156.5 199.819 177 196L181 199L181 233C192.749 231.168 201.624 221.223 210.089 213.679C213.438 210.694 218.594 207.225 220.272 202.907C223.831 193.752 221 178.789 221 169L203 182L209.812 171.83C213.062 162.081 210 146.365 210 136C200.672 139.588 194.196 148.182 184 150z"/>
<path style="fill:#e5d055; stroke:none;" d="M37 139L36 145C42.4413 148.976 56.6966 156.039 59.8025 163.093L60 177L89 182L84 179L85 169C90.8326 171.302 96.5955 178.644 103 179C108.608 179.312 111.263 165.82 112 167L116 156C110.866 153.433 88.1795 145.282 89 142L75 141L73 159C60.0421 154.871 50.5231 141.44 37 139z"/>
<path style="fill:#ffff01; stroke:none;" d="M0 140L0 143L0 140z"/>
<path style="fill:#715f10; stroke:none;" d="M156 143L161 146L161 141L156 143z"/>
<path style="fill:#897413; stroke:none;" d="M161 141L161 146L170 145L170 142L161 141z"/>
<path style="fill:#a69f77; stroke:none;" d="M1 143L3 195C5.48926 189.068 3.76282 181.232 3.16975 175C2.23174 165.143 4.85448 152.186 1 143z"/>
<path style="fill:#e5d055; stroke:none;" d="M2 148L2 157C3.25612 154.006 3.25612 150.994 2 148z"/>
<path style="fill:#c7b34e; stroke:none;" d="M116 156L113 167L111 165L108.737 172.995C104.197 184.904 92.0935 171.26 85 169L84 179L89 181L87 182C102.662 189.046 127.834 193.989 145 194L153 173C141.528 166.329 128.354 160.861 116 156z"/>
<path style="fill:#e5d055; stroke:none;" d="M5 160C6.37257 162.547 7.21833 163.188 10 164L5 160z"/>
<path style="fill:#b69e25; stroke:none;" d="M9 164C15.2972 169.617 26.0044 170.221 34 172.116C53.9486 176.843 75.6225 184.333 96 186C92.0081 180.755 78.3344 180.246 72 178.999L9 164z"/>
<path style="fill:#e5d055; stroke:none;" d="M17.6667 168.333L18.3333 168.667L17.6667 168.333M21.6667 169.333L22.3333 169.667L21.6667 169.333z"/>
<path style="fill:#f0df77; stroke:none;" d="M16 170L14 192L5 176C-7.42395 205.608 37.1354 213.268 57 215L67 182L79 184C75.5224 179.866 66.1714 179.458 61 178.399L16 170z"/>
<path style="fill:#c7b34e; stroke:none;" d="M26.6667 170.333L27.3333 170.667L26.6667 170.333M30.6667 171.333L31.3333 171.667L30.6667 171.333M3 172L3 178C3.9511 175.715 3.9511 174.285 3 172z"/>
<path style="fill:#e5d055; stroke:none;" d="M34.6667 172.333L35.3333 172.667L34.6667 172.333z"/>
<path style="fill:#c7b34e; stroke:none;" d="M39.6667 173.333L40.3333 173.667L39.6667 173.333M43 174L46 175L43 174M56 177L59 178L56 177M61.6667 178.333L62.3333 178.667L61.6667 178.333M70.6667 180.333L71.3333 180.667L70.6667 180.333z"/>
<path style="fill:#ffff01; stroke:none;" d="M2 181L3 182L2 181z"/>
<path style="fill:#c7b34e; stroke:none;" d="M74.6667 181.333L75.3333 181.667L74.6667 181.333z"/>
<path style="fill:#e5d055; stroke:none;" d="M67 182L56 216L89 223C91.0484 214.777 93.2801 192.691 102 190L95 189C92.8016 181.485 73.5776 182.781 67 182z"/>
<path style="fill:#c7b34e; stroke:none;" d="M83 183L86 184L83 183M95 186C95.7962 189.716 98.6373 189 102 189C93.0984 193.404 90.2024 214.543 89 224L126 231L130.826 217L133 200L144 205L144 200L157 200C152.092 196.262 143.951 196.905 138 195.64L95 186M4 187L4 196C5.25612 193.006 5.25612 189.994 4 187z"/>
<path style="fill:#715f10; stroke:none;" d="M3 195L4 196L3 195M4 196L9 202L4 196z"/>
<path style="fill:#b69e25; stroke:none;" d="M156 198L157 200L144 200L144 205L133 200L130.826 216L126 231L120 231C138.614 239.948 161.527 236.622 181 234L181 199L177 196L156 198z"/>
<path style="fill:#c7b34e; stroke:none;" d="M6 198L7 199L6 198M7 199L8 200L7 199z"/>
<path style="fill:#a69f77; stroke:none;" d="M8 200L9 201L8 200z"/>
<path style="fill:#651d15; stroke:none;" d="M9 202L10 203L9 202z"/>
<path style="fill:#b69e25; stroke:none;" d="M11.6667 203.333L12.3333 203.667L11.6667 203.333z"/>
<path style="fill:#651d15; stroke:none;" d="M220 203L220 205L222 203L220 203z"/>
<path style="fill:#b69e25; stroke:none;" d="M13.6667 204.333L14.3333 204.667L13.6667 204.333z"/>
<path style="fill:#715f10; stroke:none;" d="M14.6667 205.333L15.3333 205.667L14.6667 205.333z"/>
<path style="fill:#c7b34e; stroke:none;" d="M16.6667 205.333L17.3333 205.667L16.6667 205.333z"/>
<path style="fill:#897413; stroke:none;" d="M17 206L20 207L17 206z"/>
<path style="fill:#715f10; stroke:none;" d="M20.6667 207.333L21.3333 207.667L20.6667 207.333z"/>
<path style="fill:#c7b34e; stroke:none;" d="M22 207L25 208L22 207z"/>
<path style="fill:#715f10; stroke:none;" d="M23 208L26 209L23 208z"/>
<path style="fill:#a69f77; stroke:none;" d="M26.6667 208.333L27.3333 208.667L26.6667 208.333z"/>
<path style="fill:#715f10; stroke:none;" d="M28.6667 209.333L29.3333 209.667L28.6667 209.333z"/>
<path style="fill:#a69f77; stroke:none;" d="M30 209L33 210L30 209z"/>
<path style="fill:#715f10; stroke:none;" d="M32.6667 210.333L33.3333 210.667L32.6667 210.333z"/>
<path style="fill:#a69f77; stroke:none;" d="M34.6667 210.333L35.3333 210.667L34.6667 210.333z"/>
<path style="fill:#715f10; stroke:none;" d="M35 211L38 212L35 211z"/>
<path style="fill:#a69f77; stroke:none;" d="M38.6667 211.333L39.3333 211.667L38.6667 211.333z"/>
<path style="fill:#715f10; stroke:none;" d="M40.6667 212.333L41.3333 212.667L40.6667 212.333z"/>
<path style="fill:#a69f77; stroke:none;" d="M42.6667 212.333L43.3333 212.667L42.6667 212.333z"/>
<path style="fill:#715f10; stroke:none;" d="M44 213L47 214L44 213z"/>
<path style="fill:#c7b34e; stroke:none;" d="M47 213L50 214L47 213z"/>
<path style="fill:#715f10; stroke:none;" d="M48.6667 214.333L49.3333 214.667L48.6667 214.333z"/>
<path style="fill:#a69f77; stroke:none;" d="M50 214L53 215L50 214z"/>
<path style="fill:#715f10; stroke:none;" d="M52.6667 215.333L53.3333 215.667L52.6667 215.333z"/>
<path style="fill:#897413; stroke:none;" d="M54.6667 215.333L55.3333 215.667L54.6667 215.333z"/>
<path style="fill:#715f10; stroke:none;" d="M56 216L59 217L56 216z"/>
<path style="fill:#b69e25; stroke:none;" d="M59 216L62 217L59 216z"/>
<path style="fill:#715f10; stroke:none;" d="M60 217L63 218L60 217z"/>
<path style="fill:#b69e25; stroke:none;" d="M63.6667 217.333L64.3333 217.667L63.6667 217.333z"/>
<path style="fill:#715f10; stroke:none;" d="M64.6667 218.333L65.3333 218.667L64.6667 218.333z"/>
<path style="fill:#897413; stroke:none;" d="M66.6667 218.333L67.3333 218.667L66.6667 218.333z"/>
<path style="fill:#c7b34e; stroke:none;" d="M68.6667 218.333L69.3333 218.667L68.6667 218.333z"/>
<path style="fill:#715f10; stroke:none;" d="M69.6667 219.333L70.3333 219.667L69.6667 219.333z"/>
<path style="fill:#b69e25; stroke:none;" d="M71 219L74 220L71 219z"/>
<path style="fill:#651d15; stroke:none;" d="M72 220L75 221L72 220z"/>
<path style="fill:#b69e25; stroke:none;" d="M75 220L78 221L75 220z"/>
<path style="fill:#715f10; stroke:none;" d="M77.6667 221.333L78.3333 221.667L77.6667 221.333z"/>
<path style="fill:#b69e25; stroke:none;" d="M79.6667 221.333L80.3333 221.667L79.6667 221.333z"/>
<path style="fill:#715f10; stroke:none;" d="M81 222L84 223L81 222z"/>
<path style="fill:#b69e25; stroke:none;" d="M84 222L87 223L84 222z"/>
<path style="fill:#715f10; stroke:none;" d="M85.6667 223.333L86.3333 223.667L85.6667 223.333z"/>
<path style="fill:#897413; stroke:none;" d="M87.6667 223.333L88.3333 223.667L87.6667 223.333z"/>
<path style="fill:#715f10; stroke:none;" d="M89.6667 224.333L90.3333 224.667L89.6667 224.333z"/>
<path style="fill:#897413; stroke:none;" d="M91 224L94 225L91 224z"/>
<path style="fill:#715f10; stroke:none;" d="M93.6667 225.333L94.3333 225.667L93.6667 225.333z"/>
<path style="fill:#b69e25; stroke:none;" d="M95 225L99 226L95 225z"/>
<path style="fill:#715f10; stroke:none;" d="M97 226L100 227L97 226z"/>
<path style="fill:#b69e25; stroke:none;" d="M100 226L103 227L100 226z"/>
<path style="fill:#715f10; stroke:none;" d="M101.667 227.333L102.333 227.667L101.667 227.333z"/>
<path style="fill:#897413; stroke:none;" d="M103 227L106 228L103 227z"/>
<path style="fill:#715f10; stroke:none;" d="M106.667 228.333L107.333 228.667L106.667 228.333z"/>
<path style="fill:#b69e25; stroke:none;" d="M108 228L111 229L108 228z"/>
<path style="fill:#651d15; stroke:none;" d="M109 229L112 230L109 229z"/>
<path style="fill:#897413; stroke:none;" d="M112.667 229.333L113.333 229.667L112.667 229.333z"/>
<path style="fill:#715f10; stroke:none;" d="M187 231L192 230L187 231M114 230L117 231L114 230M118.667 231.333L119.333 231.667L118.667 231.333M122 232L125 233L122 232M184.667 232.333L185.333 232.667L184.667 232.333M126.667 233.333L127.333 233.667L126.667 233.333z"/>
<path style="fill:#897413; stroke:none;" d="M128.667 233.333L129.333 233.667L128.667 233.333z"/>
<path style="fill:#715f10; stroke:none;" d="M181 233L184 234L181 233M130 234L133 235L130 234z"/>
<path style="fill:#897413; stroke:none;" d="M177 234L180 235L177 234z"/>
<path style="fill:#651d15; stroke:none;" d="M134.667 235.333L135.333 235.667L134.667 235.333z"/>
<path style="fill:#715f10; stroke:none;" d="M136.667 235.333L137.333 235.667L136.667 235.333z"/>
<path style="fill:#897413; stroke:none;" d="M173 235L176 236L173 235z"/>
<path style="fill:#651d15; stroke:none;" d="M176 235L179 236L176 235z"/>
<path style="fill:#715f10; stroke:none;" d="M139 236L145 237L139 236z"/>
<path style="fill:#897413; stroke:none;" d="M145 236L150 237L145 236M165 236L170 237L165 236z"/>
<path style="fill:#715f10; stroke:none;" d="M170 236L173 237L170 236z"/>
<path style="fill:#651d15; stroke:none;" d="M173.667 236.333L174.333 236.667L173.667 236.333M146 237L150 238L146 237z"/>
<path style="fill:#715f10; stroke:none;" d="M150 237C155.222 239.191 162.368 238 168 238C162.778 235.809 155.632 237 150 237z"/>
</svg>